<svg xmlns="http://www.w3.org/2000/svg" viewBox="0 0 200 220" fill="none">
  <!-- Laurel branches left -->
  <g stroke="#00f0ff" stroke-width="1.5" fill="none" opacity="0.9">
    <path d="M38 170 Q20 155 18 135" stroke-linecap="round"/>
    <ellipse cx="22" cy="147" rx="7" ry="4" transform="rotate(-40 22 147)" fill="#00f0ff" opacity="0.7"/>
    <ellipse cx="16" cy="133" rx="7" ry="4" transform="rotate(-50 16 133)" fill="#00f0ff" opacity="0.7"/>
    <ellipse cx="14" cy="118" rx="7" ry="4" transform="rotate(-55 14 118)" fill="#00f0ff" opacity="0.7"/>
    <ellipse cx="17" cy="103" rx="7" ry="4" transform="rotate(-50 17 103)" fill="#00f0ff" opacity="0.7"/>
    <ellipse cx="23" cy="89" rx="7" ry="4" transform="rotate(-40 23 89)" fill="#00f0ff" opacity="0.7"/>
    <ellipse cx="31" cy="77" rx="7" ry="4" transform="rotate(-30 31 77)" fill="#00f0ff" opacity="0.7"/>
    <path d="M38 170 Q15 140 20 80" stroke-linecap="round"/>
  </g>
  <!-- Laurel branches right -->
  <g stroke="#00f0ff" stroke-width="1.5" fill="none" opacity="0.9">
    <path d="M162 170 Q180 155 182 135" stroke-linecap="round"/>
    <ellipse cx="178" cy="147" rx="7" ry="4" transform="rotate(40 178 147)" fill="#00f0ff" opacity="0.7"/>
    <ellipse cx="184" cy="133" rx="7" ry="4" transform="rotate(50 184 133)" fill="#00f0ff" opacity="0.7"/>
    <ellipse cx="186" cy="118" rx="7" ry="4" transform="rotate(55 186 118)" fill="#00f0ff" opacity="0.7"/>
    <ellipse cx="183" cy="103" rx="7" ry="4" transform="rotate(50 183 103)" fill="#00f0ff" opacity="0.7"/>
    <ellipse cx="177" cy="89" rx="7" ry="4" transform="rotate(40 177 89)" fill="#00f0ff" opacity="0.7"/>
    <ellipse cx="169" cy="77" rx="7" ry="4" transform="rotate(30 169 77)" fill="#00f0ff" opacity="0.7"/>
    <path d="M162 170 Q185 140 180 80" stroke-linecap="round"/>
  </g>
  <!-- Shield -->
  <path d="M55 65 L145 65 L145 145 Q100 185 55 145 Z" fill="#0a0f1e" stroke="#00f0ff" stroke-width="2.5"/>
  <path d="M62 70 L138 70 L138 142 Q100 178 62 142 Z" fill="none" stroke="#00f0ff44" stroke-width="1"/>
  <!-- Biohazard symbol -->
  <g transform="translate(100,118) scale(0.38)" stroke="#00f0ff" stroke-width="3" fill="none">
    <circle cx="0" cy="-38" r="12"/>
    <circle cx="33" cy="19" r="12"/>
    <circle cx="-33" cy="19" r="12"/>
    <path d="M0,-26 A38,38 0 0,1 33,7" stroke-linecap="round"/>
    <path d="M33,7 A38,38 0 0,1 -33,7" stroke-linecap="round"/>
    <path d="M-33,7 A38,38 0 0,1 0,-26" stroke-linecap="round"/>
    <circle cx="0" cy="0" r="10" fill="#00f0ff22"/>
  </g>
  <!-- Sword -->
  <line x1="100" y1="20" x2="100" y2="175" stroke="#00f0ff" stroke-width="2.5"/>
  <rect x="96" y="20" width="8" height="4" rx="2" fill="#00f0ff"/>
  <line x1="82" y1="85" x2="118" y2="85" stroke="#00f0ff" stroke-width="2.5"/>
  <polygon points="100,175 96,162 104,162" fill="#00f0ff"/>
  <!-- Caduceus wings -->
  <path d="M100 30 Q75 20 60 30 Q70 40 100 38" fill="#00f0ff" opacity="0.8"/>
  <path d="M100 30 Q125 20 140 30 Q130 40 100 38" fill="#00f0ff" opacity="0.8"/>
  <!-- Snake coils left -->
  <path d="M96 50 Q82 60 88 72 Q94 84 82 92" stroke="#00f0ff" stroke-width="2" fill="none" stroke-linecap="round"/>
  <!-- Snake coils right -->
  <path d="M104 50 Q118 60 112 72 Q106 84 118 92" stroke="#00f0ff" stroke-width="2" fill="none" stroke-linecap="round"/>
  <!-- Neon glow filter -->
  <defs>
    <filter id="glow">
      <feGaussianBlur stdDeviation="2.5" result="coloredBlur"/>
      <feMerge>
        <feMergeNode in="coloredBlur"/>
        <feMergeNode in="SourceGraphic"/>
      </feMerge>
    </filter>
  </defs>
</svg>